<svg xmlns="http://www.w3.org/2000/svg" width="500" height="500" viewBox="0 0 500 500">
<g>
<path d="M 276.00,491.25 L 276.00,491.15 L 276.58,490.73 L 276.94,490.49 L 278.13,489.85 L 278.79,489.51 L 280.44,488.75 L 283.25,487.54 L 288.17,485.53 L 297.43,481.17 L 301.97,478.93 L 310.45,474.13 L 314.60,471.68 L 322.26,466.47 L 325.99,463.82 L 332.79,458.25 L 336.08,455.42 L 341.99,449.51 L 344.82,446.52 L 349.79,440.31 L 352.15,437.17 L 356.14,430.70 L 360.97,420.72 L 362.30,417.40 L 364.53,410.32 L 365.56,406.75 L 367.12,399.56 L 367.81,396.00 L 368.60,389.23 L 368.75,387.59 L 368.87,384.48 L 368.81,380.13 L 368.50,374.77 L 362.50,383.61 L 360.73,386.22 L 357.16,390.93 L 355.37,393.20 L 351.75,397.24 L 349.94,399.18 L 346.27,402.55 L 344.42,404.15 L 340.69,406.86 L 338.82,408.14 L 335.02,410.19 L 333.11,411.13 L 329.23,412.53 L 327.29,413.15 L 323.33,413.89 L 317.30,414.29 L 315.57,414.27 L 312.39,413.94 L 310.84,413.73 L 308.00,413.03 L 306.62,412.63 L 304.10,411.54 L 302.88,410.94 L 300.66,409.44 L 299.59,408.64 L 297.67,406.73 L 296.75,405.72 L 295.10,403.37 L 294.31,402.15 L 292.92,399.36 L 291.11,394.68 L 290.45,392.66 L 289.39,388.70 L 289.14,387.66 L 288.68,385.41 L 288.45,384.25 L 288.00,381.63 L 287.78,380.26 L 287.33,377.13 L 287.11,375.48 L 286.63,371.67 L 286.39,369.67 L 285.87,365.04 L 284.99,357.00 L 284.55,352.80 L 283.67,345.20 L 283.23,341.52 L 282.33,334.83 L 281.87,331.58 L 280.93,325.64 L 280.44,322.74 L 279.42,317.39 L 278.89,314.77 L 277.75,309.85 L 277.16,307.42 L 275.87,302.76 L 271.30,289.00 L 270.26,286.22 L 268.09,280.96 L 266.99,278.37 L 264.67,273.43 L 263.48,270.99 L 260.95,266.31 L 259.65,263.99 L 256.86,259.49 L 255.43,257.26 L 252.35,252.88 L 250.77,250.69 L 247.34,246.35 L 245.58,244.18 L 241.77,239.81 L 235.56,233.15 L 233.28,230.79 L 228.38,226.13 L 227.17,225.00 L 224.83,222.89 L 223.68,221.87 L 221.56,220.06 L 220.54,219.20 L 218.77,217.79 L 217.94,217.15 L 216.66,216.26 L 216.09,215.89 L 215.42,215.62 L 215.29,215.60 L 215.19,215.69 L 215.25,216.05 L 215.33,216.25 L 215.77,217.28 L 216.03,217.89 L 216.75,219.57 L 217.13,220.47 L 218.04,222.59 L 219.50,226.00 L 221.42,230.48 L 225.03,240.12 L 226.79,245.02 L 229.96,255.15 L 231.48,260.22 L 234.08,270.35 L 237.17,285.00 L 237.30,285.74 L 237.54,287.46 L 237.65,288.36 L 237.85,290.35 L 238.03,292.40 L 238.30,297.13 L 238.41,299.58 L 238.53,304.85 L 238.58,307.52 L 238.56,312.99 L 238.53,315.71 L 238.38,321.03 L 238.28,323.64 L 237.99,328.47 L 237.83,330.79 L 237.41,334.80 L 237.29,335.73 L 237.04,337.38 L 236.63,339.50 L 236.10,341.77 L 234.89,346.14 L 234.26,348.31 L 232.85,352.47 L 232.12,354.52 L 230.52,358.45 L 229.70,360.39 L 227.92,364.09 L 227.01,365.91 L 225.05,369.36 L 224.06,371.06 L 221.95,374.26 L 220.87,375.82 L 218.61,378.76 L 217.46,380.19 L 215.05,382.85 L 213.83,384.14 L 211.29,386.52 L 210.00,387.67 L 207.34,389.75 L 205.99,390.75 L 203.21,392.52 L 201.80,393.37 L 198.92,394.83 L 197.46,395.52 L 194.48,396.66 L 192.97,397.19 L 189.90,397.99 L 188.36,398.35 L 185.21,398.81 L 180.40,399.11 L 179.19,399.12 L 177.02,399.08 L 175.97,399.06 L 174.05,398.95 L 172.18,398.81 L 168.86,398.24 L 167.21,397.89 L 163.86,396.78 L 162.99,396.46 L 161.13,395.70 L 158.08,394.36 L 156.60,393.69 L 154.07,392.33 L 152.84,391.62 L 150.53,390.00 L 149.37,389.12 L 146.89,386.94 L 146.25,386.34 L 144.86,385.00 L 142.58,382.71 L 140.19,380.27 L 136.14,375.43 L 134.22,372.97 L 130.90,367.76 L 130.10,366.41 L 128.60,363.57 L 127.85,362.12 L 126.44,359.02 L 125.73,357.43 L 124.37,354.03 L 122.34,348.50 L 121.78,346.88 L 120.83,344.30 L 120.39,343.12 L 119.68,341.46 L 119.35,340.74 L 118.86,340.03 L 118.64,339.79 L 118.35,340.06 L 118.23,340.32 L 118.13,341.61 L 118.12,341.99 L 118.12,342.96 L 118.13,343.48 L 118.17,344.71 L 118.20,345.36 L 118.28,346.87 L 118.33,347.65 L 118.45,349.43 L 118.52,350.35 L 118.68,352.41 L 118.95,355.81 L 119.38,360.95 L 120.65,370.71 L 121.36,375.51 L 123.20,384.62 L 124.19,389.09 L 126.62,397.60 L 127.91,401.79 L 130.95,409.74 L 132.54,413.65 L 136.21,421.10 L 138.13,424.77 L 142.44,431.76 L 144.68,435.21 L 149.67,441.80 L 157.92,451.27 L 161.21,454.73 L 168.18,461.24 L 171.73,464.43 L 179.19,470.38 L 182.98,473.29 L 190.91,478.66 L 203.28,486.03 L 204.35,486.62 L 206.02,487.58 L 206.77,488.03 L 207.78,488.72 L 208.20,489.03 L 208.51,489.46 L 208.58,489.64 L 208.17,489.81 L 207.87,489.86 L 206.70,489.78 L 206.01,489.70 L 204.05,489.37 L 202.96,489.17 L 200.18,488.60 L 195.03,487.46 L 191.26,486.61 L 183.87,484.69 L 180.21,483.70 L 173.06,481.50 L 169.52,480.36 L 162.61,477.88 L 159.19,476.61 L 152.54,473.86 L 149.24,472.46 L 142.85,469.45 L 139.68,467.91 L 133.55,464.64 L 130.52,462.97 L 124.67,459.45 L 121.77,457.65 L 116.20,453.88 L 113.45,451.96 L 108.17,447.95 L 105.56,445.91 L 100.58,441.66 L 98.12,439.51 L 93.45,435.02 L 91.15,432.75 L 86.78,428.04 L 84.64,425.66 L 80.60,420.73 L 78.62,418.24 L 74.91,413.10 L 73.10,410.50 L 69.72,405.15 L 65.05,396.89 L 63.49,393.91 L 60.66,387.72 L 59.29,384.60 L 56.85,378.14 L 55.68,374.88 L 53.63,368.19 L 52.66,364.82 L 51.00,357.92 L 50.22,354.46 L 48.95,347.40 L 48.36,343.85 L 47.49,336.66 L 47.10,333.05 L 46.61,325.76 L 46.42,322.10 L 46.32,314.75 L 46.32,311.07 L 46.62,303.69 L 46.81,299.99 L 47.50,292.62 L 47.89,288.93 L 48.97,281.60 L 49.56,277.94 L 51.02,270.67 L 51.81,267.05 L 53.67,259.90 L 54.64,256.34 L 56.89,249.33 L 58.07,245.85 L 60.71,239.01 L 65.10,229.00 L 66.40,226.29 L 69.15,221.00 L 69.84,219.71 L 71.18,217.29 L 71.85,216.11 L 73.12,213.95 L 73.74,212.91 L 74.87,211.12 L 75.42,210.27 L 76.37,208.93 L 76.81,208.32 L 77.52,207.51 L 78.25,207.01 L 78.35,207.01 L 78.54,207.70 L 78.63,208.14 L 78.78,209.58 L 78.85,210.38 L 78.94,212.37 L 79.00,215.78 L 79.00,218.11 L 79.14,222.59 L 79.23,224.80 L 79.55,229.06 L 79.73,231.16 L 80.24,235.20 L 80.52,237.20 L 81.22,241.05 L 81.59,242.94 L 82.48,246.60 L 82.95,248.40 L 84.04,251.88 L 88.03,261.70 L 89.14,263.96 L 91.44,267.69 L 92.62,269.45 L 95.26,272.37 L 96.65,273.76 L 99.86,276.10 L 105.58,279.22 L 106.63,279.70 L 108.54,280.38 L 109.51,280.68 L 111.69,281.07 L 112.28,281.15 L 113.61,281.27 L 114.30,281.32 L 115.89,281.39 L 116.73,281.43 L 118.66,281.46 L 122.00,281.49 L 123.35,281.49 L 125.63,281.48 L 126.71,281.47 L 128.52,281.42 L 129.38,281.39 L 130.85,281.28 L 131.55,281.22 L 132.78,281.04 L 133.98,280.83 L 136.18,280.10 L 136.76,279.88 L 138.00,279.35 L 140.12,278.36 L 141.57,277.68 L 144.27,276.16 L 145.59,275.38 L 148.03,273.66 L 149.22,272.78 L 151.41,270.87 L 152.48,269.89 L 154.41,267.79 L 155.35,266.71 L 157.02,264.41 L 157.83,263.23 L 159.25,260.74 L 159.93,259.47 L 161.10,256.78 L 162.55,252.53 L 162.88,251.41 L 163.35,248.99 L 163.55,247.75 L 163.78,245.00 L 163.86,243.57 L 163.83,240.35 L 163.78,238.66 L 163.47,234.83 L 163.28,232.82 L 162.69,228.24 L 162.36,225.84 L 161.47,220.37 L 161.23,218.94 L 160.69,215.90 L 160.41,214.34 L 159.79,211.02 L 159.47,209.33 L 158.77,205.73 L 157.63,199.99 L 157.19,197.83 L 156.38,193.74 L 155.99,191.74 L 155.25,187.93 L 154.54,184.19 L 153.32,177.44 L 152.75,174.16 L 151.79,168.18 L 151.35,165.26 L 150.63,159.83 L 150.29,157.16 L 149.78,152.06 L 149.55,149.53 L 149.22,144.55 L 149.07,142.05 L 148.89,136.97 L 148.77,129.00 L 148.75,126.64 L 148.80,122.31 L 148.83,120.21 L 148.99,116.30 L 149.08,114.39 L 149.35,110.78 L 149.50,109.00 L 149.91,105.57 L 150.35,102.16 L 151.71,95.37 L 152.10,93.63 L 153.00,90.02 L 154.59,84.26 L 155.42,81.40 L 157.47,75.66 L 158.56,72.79 L 161.11,67.10 L 162.45,64.27 L 165.46,58.68 L 167.02,55.90 L 170.45,50.47 L 172.22,47.78 L 176.04,42.55 L 178.00,39.97 L 182.17,35.02 L 184.30,32.58 L 188.79,27.94 L 195.84,21.40 L 196.88,20.52 L 199.37,18.51 L 200.67,17.48 L 203.54,15.30 L 206.46,13.11 L 212.50,8.86 L 213.95,7.85 L 216.62,6.07 L 217.90,5.24 L 220.06,3.89 L 221.06,3.29 L 222.49,2.54 L 222.79,2.40 L 223.22,2.25 L 223.58,2.25 L 223.65,2.32 L 223.61,2.87 L 223.57,3.20 L 223.33,4.18 L 223.19,4.72 L 222.78,6.00 L 222.02,8.13 L 221.88,8.50 L 221.52,9.48 L 221.34,10.00 L 220.91,11.26 L 220.46,12.58 L 219.40,15.83 L 218.85,17.53 L 217.70,21.22 L 216.00,26.82 L 215.01,30.15 L 213.25,36.70 L 212.40,39.96 L 210.91,46.39 L 210.20,49.58 L 208.98,55.86 L 208.41,58.98 L 207.47,65.11 L 207.04,68.16 L 206.38,74.13 L 206.08,77.10 L 205.70,82.92 L 205.54,85.80 L 205.43,91.45 L 205.41,94.25 L 205.58,99.72 L 205.69,102.43 L 206.14,107.71 L 206.39,110.33 L 207.11,115.43 L 207.50,117.95 L 208.49,122.85 L 209.02,125.27 L 210.28,129.97 L 210.95,132.29 L 212.49,136.77 L 213.29,138.99 L 215.10,143.25 L 216.04,145.36 L 218.12,149.40 L 221.56,155.20 L 223.30,157.88 L 227.03,162.80 L 228.94,165.18 L 233.02,169.48 L 235.09,171.54 L 239.50,175.22 L 241.74,176.97 L 246.46,180.02 L 248.87,181.46 L 253.91,183.87 L 256.47,184.99 L 261.82,186.77 L 264.53,187.57 L 270.19,188.71 L 279.00,189.68 L 281.89,189.84 L 287.03,189.76 L 289.52,189.65 L 294.12,188.99 L 296.38,188.58 L 300.78,187.28 L 307.50,184.55 L 309.92,183.40 L 314.41,180.58 L 316.59,179.08 L 320.59,175.58 L 322.53,173.75 L 326.02,169.62 L 327.70,167.48 L 330.66,162.74 L 332.08,160.30 L 334.48,155.01 L 335.62,152.30 L 337.45,146.48 L 338.29,143.51 L 339.53,137.21 L 340.68,127.25 L 340.77,125.98 L 340.99,123.66 L 341.10,122.55 L 341.35,120.72 L 341.48,119.88 L 341.73,118.73 L 342.08,118.00 L 342.19,118.00 L 342.51,118.18 L 342.69,118.30 L 343.13,118.71 L 343.60,119.17 L 344.84,120.67 L 345.51,121.50 L 347.05,123.60 L 347.84,124.71 L 349.55,127.24 L 351.29,129.85 L 354.78,135.57 L 355.61,136.99 L 357.13,139.72 L 359.08,143.50 L 360.02,145.47 L 361.65,149.09 L 362.42,150.86 L 363.72,154.19 L 364.34,155.83 L 365.35,159.02 L 365.82,160.61 L 366.57,163.80 L 366.92,165.42 L 367.45,168.77 L 367.69,170.48 L 368.02,174.14 L 368.16,176.02 L 368.34,180.14 L 368.45,187.00 L 368.45,189.44 L 368.40,193.76 L 368.35,195.86 L 368.15,199.74 L 368.02,201.65 L 367.61,205.41 L 367.37,207.30 L 366.69,211.25 L 366.31,213.28 L 365.30,217.73 L 364.75,220.05 L 363.36,225.32 L 362.98,226.71 L 362.15,229.68 L 361.72,231.21 L 360.77,234.50 L 360.28,236.18 L 359.20,239.82 L 357.44,245.72 L 356.52,248.80 L 354.92,254.30 L 354.16,256.95 L 352.86,261.68 L 352.24,263.96 L 351.21,268.04 L 350.73,270.01 L 349.95,273.56 L 349.60,275.28 L 349.04,278.43 L 348.79,279.96 L 348.44,282.82 L 348.00,290.93 L 348.00,293.16 L 348.38,297.40 L 348.63,299.48 L 349.52,303.42 L 350.03,305.35 L 351.41,308.97 L 352.16,310.74 L 354.04,314.05 L 355.04,315.66 L 357.41,318.64 L 358.66,320.08 L 361.51,322.73 L 363.00,324.00 L 366.34,326.30 L 371.88,329.36 L 372.65,329.73 L 373.99,330.34 L 374.63,330.62 L 375.80,331.09 L 376.94,331.52 L 379.15,332.03 L 379.74,332.13 L 381.04,332.27 L 381.72,332.34 L 383.28,332.41 L 384.11,332.44 L 386.05,332.47 L 389.50,332.48 L 390.64,332.48 L 392.65,332.45 L 393.62,332.44 L 395.31,332.38 L 396.94,332.31 L 399.53,332.02 L 400.76,331.85 L 402.94,331.31 L 406.33,330.13 L 407.29,329.74 L 409.20,328.76 L 410.16,328.24 L 412.05,327.00 L 413.92,325.70 L 417.47,322.45 L 419.19,320.74 L 422.24,316.84 L 425.99,310.53 L 426.71,309.01 L 428.07,305.53 L 428.74,303.71 L 429.98,299.70 L 430.58,297.64 L 431.67,293.21 L 432.20,290.95 L 433.13,286.19 L 433.57,283.79 L 434.33,278.81 L 434.68,276.30 L 435.23,271.21 L 436.04,255.95 L 436.09,249.50 L 438.21,253.50 L 439.22,255.41 L 441.17,259.74 L 442.13,261.98 L 443.95,266.91 L 444.85,269.43 L 446.53,274.85 L 447.35,277.62 L 448.87,283.43 L 449.60,286.38 L 450.92,292.49 L 451.55,295.58 L 452.65,301.89 L 453.17,305.06 L 454.02,311.47 L 455.01,321.09 L 455.22,323.71 L 455.44,328.90 L 455.51,331.49 L 455.45,336.64 L 455.39,339.20 L 455.06,344.29 L 454.86,346.83 L 454.27,351.86 L 453.93,354.37 L 453.07,359.33 L 452.60,361.81 L 451.47,366.70 L 450.87,369.14 L 449.47,373.97 L 448.74,376.37 L 447.08,381.11 L 446.22,383.48 L 444.29,388.14 L 443.30,390.46 L 441.12,395.04 L 439.99,397.32 L 437.55,401.80 L 436.30,404.04 L 433.60,408.43 L 432.22,410.61 L 429.27,414.90 L 427.76,417.03 L 424.56,421.22 L 422.92,423.30 L 419.47,427.37 L 414.00,433.36 L 410.14,437.39 L 401.93,444.84 L 397.74,448.47 L 388.89,455.12 L 384.39,458.34 L 374.93,464.16 L 370.13,466.97 L 360.07,471.96 L 354.97,474.35 L 344.35,478.51 L 338.96,480.48 L 327.79,483.78 L 322.13,485.32 L 310.42,487.76 L 292.29,490.44 L 290.24,490.67 L 286.88,491.04 L 285.31,491.21 L 282.81,491.47 L 281.67,491.59 L 279.92,491.75 L 279.12,491.82 L 277.98,491.89 L 277.48,491.92 L 276.82,491.90 L 276.54,491.89 L 276.24,491.79 L 275.99,491.68 Z" fill="rgba(3,150,148,1)"/>
</g>
</svg>