<svg width="25" height="15" viewBox="0 0 25 15" fill="none" xmlns="http://www.w3.org/2000/svg">
<g clip-path="url(#clip0_2046_219)">
<path d="M0.5 15V14.5V14L12.5 0L24.5 14V14.5V15H0.5Z" fill="#021222"/>
<path d="M1 13.2998L0.5 13.9998H24.5L24 13.2998H1Z" fill="#021222"/>
<path opacity="0.4" d="M1 13.3L12.5 0L24 13.3H22.5L12.5 1.4L2.5 13.3H1Z" fill="#F9F1F1"/>
<path opacity="0.4" d="M2 13.9998L2.5 13.2998H1L0.5 13.9998H2Z" fill="#F9F1F1"/>
<path opacity="0.4" d="M23 13.9998L22.5 13.2998H24L24.5 13.9998H23Z" fill="#F9F1F1"/>
<path opacity="0.4" d="M0.5 14.5V14H2V14.5H0.5Z" fill="#F9F1F1"/>
<path opacity="0.4" d="M23 14.5V14H24.5V14.5H23Z" fill="#F9F1F1"/>
</g>
<defs>
<clipPath id="clip0_2046_219">
<rect width="25" height="15" fill="white"/>
</clipPath>
</defs>
</svg>
